HIERARCHY
ROOT Hips
{
	OFFSET 4.188235 106.529800 -2.953774
	CHANNELS 6 Xposition Yposition Zposition Xrotation Yrotation Zrotation
	JOINT Chest
	{
		OFFSET -1.204385 13.334557 2.625505
		CHANNELS 3 Xrotation Yrotation Zrotation
		JOINT Chest2
		{
			OFFSET -4.525714 20.328300 5.034380
			CHANNELS 3 Xrotation Yrotation Zrotation
			JOINT Chest3
			{
				OFFSET -0.411860 14.822983 1.711532
				CHANNELS 3 Xrotation Yrotation Zrotation
				JOINT Neck
				{
					OFFSET -0.492434 16.854324 3.782266
					CHANNELS 3 Xrotation Yrotation Zrotation
					JOINT Head
					{
						OFFSET -3.725856 9.015030 3.830772
						CHANNELS 3 Xrotation Yrotation Zrotation
						End Site
						{
							OFFSET -3.678101 9.051987 3.789552
						}
					}
				}
				JOINT LeftCollar
				{
					OFFSET 1.519857 11.947144 7.533942
					CHANNELS 3 Xrotation Yrotation Zrotation
					JOINT LeftUpArm
					{
						OFFSET 17.436764 1.207886 1.731925
						CHANNELS 3 Xrotation Yrotation Zrotation
						JOINT LeftLowArm
						{
							OFFSET 32.301193 -4.427063 8.761382
							CHANNELS 3 Xrotation Yrotation Zrotation
							JOINT LeftHand
							{
								OFFSET -14.066040 -26.515747 -0.095795
								CHANNELS 3 Xrotation Yrotation Zrotation
								End Site
								{
									OFFSET -3.074211 -5.795166 -0.020933
								}
							}
						}
					}
				}
				JOINT RightCollar
				{
					OFFSET -5.476924 12.776047 2.929917
					CHANNELS 3 Xrotation Yrotation Zrotation
					JOINT RightUpArm
					{
						OFFSET -4.862525 7.380859 -15.178116
						CHANNELS 3 Xrotation Yrotation Zrotation
						JOINT RightLowArm
						{
							OFFSET -23.109741 21.175308 -12.541145
							CHANNELS 3 Xrotation Yrotation Zrotation
							JOINT RightHand
							{
								OFFSET -6.964176 10.518860 27.236176
								CHANNELS 3 Xrotation Yrotation Zrotation
								End Site
								{
									OFFSET -1.522095 2.299026 5.952722
								}
							}
						}
					}
				}
			}
		}
	}
	JOINT LeftUpLeg
	{
		OFFSET 7.835347 -0.518303 6.225580
		CHANNELS 3 Xrotation Yrotation Zrotation
		JOINT LeftLowLeg
		{
			OFFSET -2.156544 -47.314034 0.849353
			CHANNELS 3 Xrotation Yrotation Zrotation
			JOINT LeftFoot
			{
				OFFSET 1.657150 -42.935463 -12.424489
				CHANNELS 3 Xrotation Yrotation Zrotation
				JOINT LeftToe
				{
					OFFSET -9.694597 -15.607664 14.898836
					CHANNELS 3 Xrotation Yrotation Zrotation
					End Site
					{
						OFFSET -10.241152 -1.013582 21.299068
					}
				}
			}
		}
	}
	JOINT RightUpLeg
	{
		OFFSET -7.835332 0.518112 -6.225620
		CHANNELS 3 Xrotation Yrotation Zrotation
		JOINT RightLowLeg
		{
			OFFSET -33.724125 -31.590714 10.426954
			CHANNELS 3 Xrotation Yrotation Zrotation
			JOINT RightFoot
			{
				OFFSET 43.767643 -4.240746 -8.184723
				CHANNELS 3 Xrotation Yrotation Zrotation
				JOINT RightToe
				{
					OFFSET 7.696434 -22.367001 0.197551
					CHANNELS 3 Xrotation Yrotation Zrotation
					End Site
					{
						OFFSET -6.243843 -21.412388 7.879097
					}
				}
			}
		}
	}
}
MOTION
Frames: 7
Frame Time: 0.033333
-3.800724 105.751862 -1.111724 -4.501314 39.802449 0.661177 -5.470180 0.186488 -3.654689 3.189717 -3.188257 7.609012 -0.756390 0.637222 -0.097012 -11.985284 10.487887 -13.799260 0.000000 -0.000003 -0.000004 16.557488 -2.373866 -21.799756 13.456079 -18.150429 -46.170101 -26.556389 -22.891799 84.932726 0.000001 0.000000 0.000006 -21.987219 -2.739900 43.590496 -34.347276 -26.112693 46.417689 -42.130294 -60.361899 3.675906 -0.000001 0.000003 -0.000001 -0.975896 -1.112900 4.978746 1.966835 2.016079 6.119187 -0.607424 -12.590531 -4.991378 -0.000000 0.000000 -0.000001 17.060134 1.313425 47.475569 -21.262524 -12.350898 -123.522878 -48.826574 -20.609522 14.731311 0.000001 -0.000006 -0.000000 
-3.802354 105.759720 -1.112135 -4.977264 39.493431 0.766827 -4.852291 0.195549 -3.399229 2.932814 -3.167036 7.367957 -0.749002 0.873796 0.087126 -12.078136 10.334159 -13.746676 0.000002 -0.000003 -0.000004 16.573364 -2.998000 -21.870481 13.470601 -17.732537 -46.056208 -26.950810 -23.183236 84.599925 0.000002 0.000002 0.000005 -22.137149 -2.847231 43.428515 -34.521818 -26.250709 46.154716 -42.582992 -60.596953 3.682709 0.000004 0.000004 -0.000000 -1.015149 -1.073598 4.848029 2.328634 2.081891 6.283322 -0.787804 -12.123013 -4.859470 -0.000001 0.000001 0.000001 17.085413 1.261063 47.388897 -21.009448 -12.610063 -123.423144 -48.865178 -20.677518 14.955934 0.000003 -0.000003 -0.000000 
-3.806913 105.770653 -1.115867 -4.914754 39.810686 0.854829 -4.841586 0.209488 -3.444737 3.028039 -3.199487 7.507306 -0.772794 0.587395 -0.037898 -12.029858 10.269593 -13.755479 -0.000000 -0.000003 -0.000004 16.457843 -2.628176 -21.862184 13.494131 -17.829884 -46.142897 -26.608713 -22.909406 84.921395 0.000000 -0.000005 0.000008 -22.068594 -2.702736 43.392120 -34.518369 -26.229682 46.227697 -42.856579 -60.884716 3.394321 0.000004 0.000005 -0.000001 -1.130857 -1.093165 4.813241 2.288779 2.078427 6.166155 -0.889207 -12.342542 -5.010770 -0.000001 -0.000002 0.000000 16.862796 1.260942 47.190132 -21.165694 -12.544033 -123.382559 -48.669906 -20.465765 14.590662 0.000001 -0.000001 -0.000001 
-3.816875 105.781723 -1.117067 -5.072349 40.024628 0.976674 -4.707192 0.217220 -3.433666 3.218224 -3.235158 7.674582 -0.915195 0.704374 -0.124648 -12.136699 10.211017 -13.805358 0.000002 0.000005 -0.000001 16.440199 -3.105707 -21.883709 13.398178 -17.858599 -46.116727 -26.601608 -22.955684 85.011403 0.000001 -0.000003 0.000004 -22.278603 -2.819339 43.360240 -34.657036 -26.349524 45.854332 -42.256926 -60.847061 4.011214 0.000001 0.000003 0.000001 -1.329012 -1.126820 4.580786 2.646808 2.005913 6.575453 -0.660310 -12.731923 -5.021862 -0.000000 0.000000 -0.000001 16.854631 1.259544 47.159454 -20.893846 -12.827287 -123.183514 -48.848987 -20.513351 14.264369 0.000002 -0.000003 0.000000 
-3.835922 105.791939 -1.117011 -4.934114 40.197979 1.116192 -4.778306 0.273801 -3.626928 3.663483 -3.225567 8.020475 -1.141802 0.641796 -0.284543 -12.437199 10.265696 -13.935467 -0.000000 -0.000001 -0.000001 16.372039 -3.292209 -21.869759 13.445916 -17.765068 -46.007400 -26.908838 -23.442174 84.395177 0.000002 0.000002 0.000005 -22.323698 -2.934960 43.234875 -34.712162 -26.530859 45.790807 -41.738654 -60.744684 4.465605 0.000002 0.000004 -0.000000 -1.533719 -1.171934 4.468233 2.878962 2.043265 6.571626 -0.793303 -12.783265 -5.122970 -0.000001 -0.000000 0.000000 16.516232 1.260753 46.912659 -20.451606 -13.104556 -122.977460 -48.689980 -20.440239 14.058771 0.000003 -0.000003 -0.000000 
-3.856751 105.803017 -1.119032 -4.874353 40.228909 1.178203 -4.319550 0.215799 -3.261532 3.155376 -3.129782 7.503638 -0.893634 0.536244 0.032026 -12.502805 10.283437 -13.969963 0.000002 0.000004 -0.000001 16.118608 -3.195255 -21.731287 13.424789 -17.602188 -46.225771 -27.029931 -23.116475 84.193638 -0.000001 0.000003 0.000002 -22.221534 -2.454704 43.191941 -34.939249 -26.581496 45.927302 -41.293193 -60.344339 4.927804 0.000004 0.000003 -0.000004 -2.059142 -1.189503 4.002489 3.340081 1.969748 6.915826 -0.996337 -12.680624 -5.210918 -0.000001 -0.000000 0.000001 16.220487 1.226301 46.651801 -20.002962 -13.384474 -122.707627 -48.839992 -20.462214 13.752811 -0.000000 -0.000005 0.000001 
-3.883770 105.809441 -1.118541 -4.819704 40.159112 1.123153 -4.378768 0.244046 -3.336465 2.995213 -3.195490 7.442821 -0.680220 0.445196 0.191043 -12.540143 10.297153 -13.959618 0.000000 -0.000001 -0.000001 15.909339 -3.060912 -21.466373 13.629483 -17.297241 -46.459425 -26.905696 -22.842717 84.288448 0.000003 0.000002 0.000006 -22.114845 -2.255943 43.219572 -35.081952 -26.855264 45.835450 -41.073882 -60.346285 5.031182 0.000003 -0.000001 -0.000003 -1.346258 -1.138988 4.807313 2.814520 2.120866 6.445132 -0.946655 -12.915875 -5.312955 -0.000000 0.000002 0.000000 16.199435 1.188958 46.764246 -20.020961 -13.340346 -122.811582 -48.659067 -20.438781 14.126400 -0.000000 -0.000006 0.000001 
